<?xml version="1.0" encoding="UTF-8"?>
<svg version="1.1" xmlns="http://www.w3.org/2000/svg" width="500" height="500">
<path d="M0 0 C0.71027344 0.14453613 1.42054688 0.28907227 2.15234375 0.43798828 C21.72741935 4.55258169 40.91445102 13.6827205 56 27 C56 27.66 56 28.32 56 29 C56.59167969 29.27585938 57.18335938 29.55171875 57.79296875 29.8359375 C74.77839766 38.7946239 86.45218925 61.17760662 94 78 C94.72123047 79.58941406 94.72123047 79.58941406 95.45703125 81.2109375 C109.30706554 113.09530647 110.44791971 150.30616986 97.89746094 182.82128906 C95.32224824 189.07297518 92.22033903 195.06064121 89 201 C88.46503906 201.98871094 87.93007813 202.97742188 87.37890625 203.99609375 C86.27060257 206.00862252 85.14935789 208.01072672 84 210 C83.34 210 82.68 210 82 210 C81.7421875 210.72574219 81.484375 211.45148438 81.21875 212.19921875 C79.94757501 215.12047667 78.45983598 217.30872649 76.5 219.8125 C75.8915625 220.60269531 75.283125 221.39289063 74.65625 222.20703125 C74.1096875 222.79871094 73.563125 223.39039063 73 224 C72.34 224 71.68 224 71 224 C70.73960937 224.58652344 70.47921875 225.17304688 70.2109375 225.77734375 C67.56614067 230.63182567 62.66002606 235.06590952 58 238 C57.34 238 56.68 238 56 238 C56 238.66 56 239.32 56 240 C25.55953901 264.37259501 -12.26339517 272.57293086 -50.59375 268.50390625 C-55.11713632 267.90112119 -59.55828799 267.04125044 -64 266 C-64.71897461 265.83371094 -65.43794922 265.66742188 -66.17871094 265.49609375 C-77.23681373 262.83149067 -87.06522088 258.47998791 -97 253 C-97.91265625 252.50628906 -98.8253125 252.01257813 -99.765625 251.50390625 C-109.52133609 245.94944494 -118.79623988 238.63140476 -127 231 C-127 230.34 -127 229.68 -127 229 C-127.66 229 -128.32 229 -129 229 C-129 228.34 -129 227.68 -129 227 C-129.66 227 -130.32 227 -131 227 C-131 226.34 -131 225.68 -131 225 C-131.66 225 -132.32 225 -133 225 C-137 220.52941176 -137 220.52941176 -137 218 C-137.66 218 -138.32 218 -139 218 C-141.29516883 215.22322197 -143.09060387 212.04933412 -145 209 C-146.04607422 207.38158203 -146.04607422 207.38158203 -147.11328125 205.73046875 C-156.3272132 191.20142583 -162.49501207 175.83186296 -166 159 C-166.1750708 158.26289795 -166.3501416 157.5257959 -166.53051758 156.76635742 C-167.11684944 153.31148156 -167.18159293 149.9117507 -167.203125 146.41796875 C-167.20882507 145.68612869 -167.21452515 144.95428864 -167.22039795 144.20027161 C-167.22982207 142.64956084 -167.23637162 141.09883029 -167.24023438 139.5480957 C-167.24981238 137.2328518 -167.28080421 134.91854666 -167.3125 132.60351562 C-167.54404592 99.8973812 -155.03712028 70.91277395 -135.06640625 45.64453125 C-132.9402772 42.99189901 -132.9402772 42.99189901 -131 40 C-130.34 40 -129.68 40 -129 40 C-129 39.34 -129 38.68 -129 38 C-128.34 38 -127.68 38 -127 38 C-126.78859375 37.44699219 -126.5771875 36.89398438 -126.359375 36.32421875 C-124.52545684 33.18864029 -122.00978862 31.1041572 -119.25 28.8125 C-118.67580322 28.33272705 -118.10160645 27.8529541 -117.51000977 27.35864258 C-84.44364847 0.2921356 -41.48808876 -8.54005694 0 0 Z " fill="#F1F6F3" transform="translate(280,96)"/>
<path d="M0 0 C-3 1 -3 1 -5 1 C-5 1.66 -5 2.32 -5 3 C-4.15115234 3.17402344 -4.15115234 3.17402344 -3.28515625 3.3515625 C-0.75908327 4.0683627 1.27146668 5.09574282 3.5625 6.375 C4.32691406 6.79523438 5.09132813 7.21546875 5.87890625 7.6484375 C7.91183632 8.94382204 9.454958 10.15384758 11 12 C11 12.66 11 13.32 11 14 C11.66 14 12.32 14 13 14 C13.967407 15.68231469 14.92347446 17.37115197 15.875 19.0625 C16.40867187 20.00222656 16.94234375 20.94195312 17.4921875 21.91015625 C20.71377366 28.51190406 21.31755431 34.41920709 21.25 41.625 C21.25773438 42.45773438 21.26546875 43.29046875 21.2734375 44.1484375 C21.25916453 48.63015107 20.86125803 51.86303376 19 56 C19.27916681 59.29416842 19.51562113 62.03124226 21 65 C21.92316237 73.17658103 19.48427995 79.15015953 15 86 C11.99308808 88.8505525 11.34237015 89 7 89 C7.0825 89.639375 7.165 90.27875 7.25 90.9375 C6.8402354 95.95711629 4.72164697 100.96113576 1.45898438 104.82495117 C-0.27143471 107.40465392 -0.41780478 108.90399691 -0.51171875 111.984375 C-0.56489258 113.38623047 -0.56489258 113.38623047 -0.61914062 114.81640625 C-0.64169922 115.78449219 -0.66425781 116.75257813 -0.6875 117.75 C-0.72166016 118.73355469 -0.75582031 119.71710938 -0.79101562 120.73046875 C-0.87335273 123.15353199 -0.94254838 125.57623998 -1 128 C0.2375 128.391875 1.475 128.78375 2.75 129.1875 C21.43901209 135.42692074 40.68951627 143.88211168 57 155 C56.07038578 156.15224028 55.1309875 157.29659176 54.1875 158.4375 C53.40439453 159.39462891 53.40439453 159.39462891 52.60546875 160.37109375 C51 162 51 162 48 163 C48 163.66 48 164.32 48 165 C45.8506786 166.87804782 43.69537737 168.63641155 41.4375 170.375 C40.82841797 170.85710937 40.21933594 171.33921875 39.59179688 171.8359375 C29.10940684 180 29.10940684 180 25 180 C25 180.66 25 181.32 25 182 C23.00017055 182.77127569 21.00012709 183.5419965 19 184.3125 C17.88625 184.74175781 16.7725 185.17101562 15.625 185.61328125 C14.42875 186.07089844 13.2325 186.52851563 12 187 C11.36151123 187.25096436 10.72302246 187.50192871 10.06518555 187.76049805 C-17.84649668 198.56579305 -49.88559007 196.5272251 -77.15966797 184.82519531 C-85.08626157 181.27095196 -92.29078686 177.13640566 -99.0078125 171.625 C-100.8688078 170.10701167 -102.77127526 168.73378094 -104.75 167.375 C-107.83273292 165.21067943 -110.37046769 162.70060075 -113 160 C-113.763125 159.443125 -114.52625 158.88625 -115.3125 158.3125 C-115.869375 157.879375 -116.42625 157.44625 -117 157 C-117 156.34 -117 155.68 -117 155 C-105.48781911 146.31051731 -90.74998523 140.80957597 -77.67739868 134.89968872 C-76.35341615 134.30107927 -75.03014884 133.70088531 -73.70761108 133.09909058 C-71.83248522 132.24747275 -69.95399021 131.40380531 -68.07421875 130.5625 C-66.42812622 129.82193359 -66.42812622 129.82193359 -64.7487793 129.06640625 C-62 128 -62 128 -59 128 C-59.02305791 124.66519334 -59.10070785 121.33370869 -59.1875 118 C-59.19330078 117.06542969 -59.19910156 116.13085938 -59.20507812 115.16796875 C-59.41863123 108.38172562 -61.0194023 104.42283143 -65 99 C-66.72197523 95.47405071 -67.22396048 92.91930847 -67 89 C-67.70125 88.979375 -68.4025 88.95875 -69.125 88.9375 C-73.43041289 87.53356101 -75.48452623 84.66301619 -78 81 C-80.45297737 75.9825463 -80.61710717 70.49951388 -80 65 C-78.984375 62.6953125 -78.984375 62.6953125 -78 61 C-77.34 61 -76.68 61 -76 61 C-76.474375 60.278125 -76.94875 59.55625 -77.4375 58.8125 C-80.31704108 53.62932606 -80.15549974 48.44028338 -80.125 42.625 C-80.13080078 41.53058594 -80.13080078 41.53058594 -80.13671875 40.4140625 C-80.11289918 27.07510479 -76.26353352 15.83699036 -67 6 C-48.30786442 -8.41757745 -20.66932357 -13.09182201 0 0 Z " fill="#464F55" transform="translate(279,139)"/>
<path d="M0 0 C0.71027344 0.14453613 1.42054688 0.28907227 2.15234375 0.43798828 C21.72741935 4.55258169 40.91445102 13.6827205 56 27 C56 27.66 56 28.32 56 29 C56.59167969 29.27585938 57.18335938 29.55171875 57.79296875 29.8359375 C74.77839766 38.7946239 86.45218925 61.17760662 94 78 C94.72123047 79.58941406 94.72123047 79.58941406 95.45703125 81.2109375 C109.30706554 113.09530647 110.44791971 150.30616986 97.89746094 182.82128906 C95.32224824 189.07297518 92.22033903 195.06064121 89 201 C88.46503906 201.98871094 87.93007813 202.97742188 87.37890625 203.99609375 C86.27060257 206.00862252 85.14935789 208.01072672 84 210 C83.34 210 82.68 210 82 210 C81.7421875 210.72574219 81.484375 211.45148438 81.21875 212.19921875 C79.94757501 215.12047667 78.45983598 217.30872649 76.5 219.8125 C75.8915625 220.60269531 75.283125 221.39289063 74.65625 222.20703125 C74.1096875 222.79871094 73.563125 223.39039063 73 224 C72.34 224 71.68 224 71 224 C70.73960937 224.58652344 70.47921875 225.17304688 70.2109375 225.77734375 C67.56614067 230.63182567 62.66002606 235.06590952 58 238 C57.34 238 56.68 238 56 238 C56 238.66 56 239.32 56 240 C25.55953901 264.37259501 -12.26339517 272.57293086 -50.59375 268.50390625 C-55.11713632 267.90112119 -59.55828799 267.04125044 -64 266 C-64.71897461 265.83371094 -65.43794922 265.66742188 -66.17871094 265.49609375 C-77.23681373 262.83149067 -87.06522088 258.47998791 -97 253 C-97.91265625 252.50628906 -98.8253125 252.01257813 -99.765625 251.50390625 C-109.52133609 245.94944494 -118.79623988 238.63140476 -127 231 C-127 230.34 -127 229.68 -127 229 C-127.66 229 -128.32 229 -129 229 C-129 228.34 -129 227.68 -129 227 C-129.66 227 -130.32 227 -131 227 C-131 226.34 -131 225.68 -131 225 C-131.66 225 -132.32 225 -133 225 C-137 220.52941176 -137 220.52941176 -137 218 C-137.66 218 -138.32 218 -139 218 C-141.29516883 215.22322197 -143.09060387 212.04933412 -145 209 C-146.04607422 207.38158203 -146.04607422 207.38158203 -147.11328125 205.73046875 C-156.3272132 191.20142583 -162.49501207 175.83186296 -166 159 C-166.1750708 158.26289795 -166.3501416 157.5257959 -166.53051758 156.76635742 C-167.11684944 153.31148156 -167.18159293 149.9117507 -167.203125 146.41796875 C-167.20882507 145.68612869 -167.21452515 144.95428864 -167.22039795 144.20027161 C-167.22982207 142.64956084 -167.23637162 141.09883029 -167.24023438 139.5480957 C-167.24981238 137.2328518 -167.28080421 134.91854666 -167.3125 132.60351562 C-167.54404592 99.8973812 -155.03712028 70.91277395 -135.06640625 45.64453125 C-132.9402772 42.99189901 -132.9402772 42.99189901 -131 40 C-130.34 40 -129.68 40 -129 40 C-129 39.34 -129 38.68 -129 38 C-128.34 38 -127.68 38 -127 38 C-126.78859375 37.44699219 -126.5771875 36.89398438 -126.359375 36.32421875 C-124.52545684 33.18864029 -122.00978862 31.1041572 -119.25 28.8125 C-118.67580322 28.33272705 -118.10160645 27.8529541 -117.51000977 27.35864258 C-84.44364847 0.2921356 -41.48808876 -8.54005694 0 0 Z M-41.828125 13.01953125 C-71.22224123 14.1533043 -99.11115627 30.05382024 -119.4375 50.4453125 C-123.26218619 54.60320998 -126.52838538 58.99906978 -129.56640625 63.7578125 C-130.52196244 65.25233363 -131.50938659 66.72695068 -132.52734375 68.1796875 C-137.97953371 75.97645787 -141.74957274 84.23380543 -144.2265625 93.41796875 C-144.88288909 95.60903884 -145.64362263 97.66800795 -146.48046875 99.79296875 C-151.80088876 113.84261235 -151.48800678 129.21339454 -151 144 C-150.9690625 145.155 -150.938125 146.31 -150.90625 147.5 C-149.32874758 176.52604446 -133.62309706 203.28814135 -113 223 C-100.21671852 234.34335262 -85.85691243 241.98309714 -70 248 C-68.77023438 248.49306641 -68.77023438 248.49306641 -67.515625 248.99609375 C-55.65693992 253.43160968 -43.16127936 254.27421177 -30.625 254.3125 C-29.54420166 254.31789795 -28.46340332 254.3232959 -27.34985352 254.32885742 C-20.36746243 254.26732206 -13.81649965 253.49642088 -7 252 C-5.75992188 251.72800781 -4.51984375 251.45601562 -3.2421875 251.17578125 C13.50200086 246.88289769 31.49541211 240.0704276 45 229 C45 228.34 45 227.68 45 227 C45.59603027 226.72704102 46.19206055 226.45408203 46.80615234 226.17285156 C64.77833463 216.56475411 78.7602597 190.87155428 84.65917969 172.21923828 C88.45593587 159.56417832 90.33289036 147.81805078 90.25 134.5625 C90.25773438 133.32951172 90.26546875 132.09652344 90.2734375 130.82617188 C90.21392069 102.65984145 78.71811949 76.48920574 61 55 C60.443125 54.30132812 59.88625 53.60265625 59.3125 52.8828125 C40.48614888 29.86145923 11.23883892 16.57010706 -17.85522461 13.46264648 C-25.86341231 12.7336032 -33.8018505 12.96410118 -41.828125 13.01953125 Z " fill="#4A5158" transform="translate(280,96)"/>
<path d="M0 0 C0.93150303 3.14382274 1.53015644 5.74332473 1 9 C-1.18748811 12.17017507 -3.51784601 15.258923 -7 17 C-7.65555119 19.52733235 -7.65555119 19.52733235 -8 22 C-8.66 21.67 -9.32 21.34 -10 21 C-8.57102386 16.32530922 -6.65278433 12.03128432 -4.4375 7.6875 C-4.12103516 7.05521484 -3.80457031 6.42292969 -3.47851562 5.77148438 C-1.14087865 1.14087865 -1.14087865 1.14087865 0 0 Z " fill="#64686D" transform="translate(133,158)"/>
<path d="M0 0 C0.99 0.66 1.98 1.32 3 2 C1.88266271 3.50571657 0.75589965 5.00444292 -0.375 6.5 C-1.31472656 7.75296875 -1.31472656 7.75296875 -2.2734375 9.03125 C-2.84320313 9.6809375 -3.41296875 10.330625 -4 11 C-4.66 11 -5.32 11 -6 11 C-6.66 12.32 -7.32 13.64 -8 15 C-8.99 14.01 -9.98 13.02 -11 12 C-10.195625 11.566875 -9.39125 11.13375 -8.5625 10.6875 C-5.72153646 9.19525998 -5.72153646 9.19525998 -5 6 C-2.9375 5.3125 -2.9375 5.3125 -1 5 C-0.67 3.35 -0.34 1.7 0 0 Z " fill="#6A7379" transform="translate(357,309)"/>
<path d="M0 0 C3.82159287 0.67439874 7.44526118 1.42011608 11 3 C12.375 5.625 12.375 5.625 13 8 C9.51329166 6.8905928 6.22515763 5.73662334 3 4 C3 3.34 3 2.68 3 2 C2.01 1.67 1.02 1.34 0 1 C0 0.67 0 0.34 0 0 Z " fill="#CCD2D5" transform="translate(271,138)"/>
<path d="M0 0 C0.66 0 1.32 0 2 0 C0.56835889 3.65938172 -0.98934296 7.23988068 -2.625 10.8125 C-3.29402344 12.27623047 -3.29402344 12.27623047 -3.9765625 13.76953125 C-4.31429687 14.50558594 -4.65203125 15.24164063 -5 16 C-5.66 15.34 -6.32 14.68 -7 14 C-6.6875 11.625 -6.6875 11.625 -6 9 C-5.814375 8.236875 -5.62875 7.47375 -5.4375 6.6875 C-5.293125 6.130625 -5.14875 5.57375 -5 5 C-4.34 5 -3.68 5 -3 5 C-2.505 4.175 -2.01 3.35 -1.5 2.5 C-1.005 1.675 -0.51 0.85 0 0 Z " fill="#58626A" transform="translate(144,166)"/>
<path d="M0 0 C0.66 0.33 1.32 0.66 2 1 C1.01 2.485 1.01 2.485 0 4 C-0.66 4 -1.32 4 -2 4 C-2 4.66 -2 5.32 -2 6 C-3.65 6.33 -5.3 6.66 -7 7 C-7 5.68 -7 4.36 -7 3 C-4.69631264 1.93347808 -2.35981813 0.93578995 0 0 Z " fill="#4F575E" transform="translate(208,271)"/>
<path d="M0 0 C1.08892712 2.83121051 0.96109941 4.16532751 0.25 7.1875 C-0.1625 8.115625 -0.575 9.04375 -1 10 C-1.99 10.33 -2.98 10.66 -4 11 C-4 5.95749572 -2.59750368 4.22094347 0 0 Z " fill="#70737C" transform="translate(133,158)"/>
<path d="M0 0 C1.65 0 3.3 0 5 0 C2.42215154 2.64752004 0.08351902 4.94432065 -3 7 C-3 6.01 -3 5.02 -3 4 C-3.66 3.67 -4.32 3.34 -5 3 C-4.34 2.67 -3.68 2.34 -3 2 C-2.34 2.33 -1.68 2.66 -1 3 C-0.67 2.01 -0.34 1.02 0 0 Z " fill="#515A61" transform="translate(165,138)"/>
<path d="M0 0 C3.93673644 1.31224548 6.22719294 2.91910327 9 6 C8.236875 5.814375 7.47375 5.62875 6.6875 5.4375 C3.91032625 4.77180827 3.91032625 4.77180827 1 6 C0.67 4.02 0.34 2.04 0 0 Z " fill="#7B7F82" transform="translate(319,112)"/>
<path d="M0 0 C1.32 0.66 2.64 1.32 4 2 C2.35 3.98 0.7 5.96 -1 8 C-1.66 7.34 -2.32 6.68 -3 6 C-2.67 5.01 -2.34 4.02 -2 3 C-1.34 3 -0.68 3 0 3 C0 2.01 0 1.02 0 0 Z " fill="#555C66" transform="translate(332,292)"/>
<path d="M0 0 C0.66 0 1.32 0 2 0 C2 2.97 2 5.94 2 9 C1.01 9.495 1.01 9.495 0 10 C-0.19412181 8.52168779 -0.38012131 7.04230684 -0.5625 5.5625 C-0.66691406 4.73878906 -0.77132813 3.91507813 -0.87890625 3.06640625 C-0.91886719 2.38449219 -0.95882813 1.70257813 -1 1 C-0.67 0.67 -0.34 0.34 0 0 Z " fill="#566169" transform="translate(298,204)"/>
<path d="M0 0 C0.66 0.99 1.32 1.98 2 3 C0.625 4.5 0.625 4.5 -1 6 C-1.66 6 -2.32 6 -3 6 C-4.62514468 7.45833358 -4.62514468 7.45833358 -6 9 C-6.33 8.34 -6.66 7.68 -7 7 C-6.34 7 -5.68 7 -5 7 C-4.731875 6.401875 -4.46375 5.80375 -4.1875 5.1875 C-3.01506533 3.02775192 -1.80630718 1.64209744 0 0 Z " fill="#8B9093" transform="translate(158,127)"/>
<path d="M0 0 C3.86848614 1.11756266 6.28922757 2.02873292 9 5 C7.5199159 4.88637738 6.04089926 4.75877092 4.5625 4.625 C3.73878906 4.55539063 2.91507812 4.48578125 2.06640625 4.4140625 C1.38449219 4.27742187 0.70257813 4.14078125 0 4 C-0.33 3.34 -0.66 2.68 -1 2 C-0.67 1.34 -0.34 0.68 0 0 Z " fill="#535A61" transform="translate(270,135)"/>
<path d="M0 0 C2 2 2 2 2 5 C0.35 5.33 -1.3 5.66 -3 6 C-1.125 1.125 -1.125 1.125 0 0 Z " fill="#DFE8EF" transform="translate(149,162)"/>
<path d="M0 0 C0.33 0.66 0.66 1.32 1 2 C1.66 2.33 2.32 2.66 3 3 C2.01 4.98 1.02 6.96 0 9 C-0.33 9 -0.66 9 -1 9 C-1.125 2.25 -1.125 2.25 0 0 Z " fill="#EBEFEF" transform="translate(355,281)"/>
<path d="M0 0 C1.32 1.65 2.64 3.3 4 5 C3.67 5.66 3.34 6.32 3 7 C1.68 6.67 0.36 6.34 -1 6 C-0.67 4.02 -0.34 2.04 0 0 Z " fill="#6D7478" transform="translate(366,160)"/>
<path d="M0 0 C0.68707555 2.49064888 1 4.37886292 1 7 C-0.32 6.34 -1.64 5.68 -3 5 C-2.625 3.0625 -2.625 3.0625 -2 1 C-1.34 0.67 -0.68 0.34 0 0 Z " fill="#40484F" transform="translate(181,112)"/>
<path d="M0 0 C4.75 0.875 4.75 0.875 7 2 C6.67 2.99 6.34 3.98 6 5 C5.01 4.67 4.02 4.34 3 4 C3 3.34 3 2.68 3 2 C2.01 1.67 1.02 1.34 0 1 C0 0.67 0 0.34 0 0 Z " fill="#D4DCE3" transform="translate(271,138)"/>
</svg>
