<?xml version="1.0" encoding="UTF-8"?>
<svg version="1.1" xmlns="http://www.w3.org/2000/svg" width="559" height="447">
<path d="M0 0 C21.64523441 -0.4286185 39.60088653 5.82481032 55.4609375 20.7578125 C62.81249499 28.17073524 73.80078125 41.00122106 73.80078125 52.1171875 C75.12078125 50.7971875 76.44078125 49.4771875 77.80078125 48.1171875 C76.81078125 45.1471875 76.81078125 45.1471875 75.80078125 42.1171875 C79.92390951 40.22277722 83.95708578 39.50985037 88.42578125 38.9921875 C89.47668945 38.86481201 89.47668945 38.86481201 90.54882812 38.73486328 C96.30989301 38.07995723 102.00382716 37.89611722 107.80078125 38.1171875 C107.80078125 39.4371875 107.80078125 40.7571875 107.80078125 42.1171875 C99.88078125 43.1071875 91.96078125 44.0971875 83.80078125 45.1171875 C84.46078125 46.1071875 85.12078125 47.0971875 85.80078125 48.1171875 C85.73828125 50.0546875 85.73828125 50.0546875 84.80078125 52.1171875 C82.38307432 54.32766241 79.83450753 56.09484995 77.10546875 57.90234375 C73.39411792 60.38973846 69.75402827 62.96568338 66.11328125 65.5546875 C59.84659218 69.9989281 53.53061803 74.36259897 47.17578125 78.6796875 C40.78605538 83.0252426 34.50583733 87.48515829 28.29907227 92.08740234 C21.87257808 96.83730677 15.29442748 101.35691312 8.68017578 105.84033203 C6.87028409 107.06996746 5.06745987 108.30938161 3.265625 109.55078125 C2.20472656 110.27394531 1.14382813 110.99710937 0.05078125 111.7421875 C-0.8721875 112.37382812 -1.79515625 113.00546875 -2.74609375 113.65625 C-4.97123737 114.98141515 -6.66846285 115.6796269 -9.19921875 116.1171875 C-8.59799513 111.43823477 -7.30206014 107.5302628 -5.4765625 103.1875 C-5.21162491 102.55230438 -4.94668732 101.91710876 -4.67372131 101.26266479 C-3.83401432 99.25327916 -2.98553641 97.24773907 -2.13671875 95.2421875 C-1.56256531 93.87264124 -0.98899169 92.50285175 -0.41601562 91.1328125 C0.9828897 87.79143193 2.38968068 84.45343921 3.80078125 81.1171875 C0.48433748 82.22266876 -2.16945364 83.74149776 -5.19921875 85.4921875 C-5.79645752 85.83652832 -6.39369629 86.18086914 -7.0090332 86.53564453 C-8.33567905 87.30116571 -9.66156479 88.06800518 -10.98681641 88.8359375 C-13.40322963 90.23533461 -15.8225943 91.6295464 -18.2421875 93.0234375 C-19.95715044 94.01281427 -21.67199529 95.00239575 -23.38671875 95.9921875 C-24.62518555 96.70640869 -24.62518555 96.70640869 -25.88867188 97.43505859 C-26.66533203 97.88445801 -27.44199219 98.33385742 -28.2421875 98.796875 C-28.9333667 99.19632324 -29.6245459 99.59577148 -30.33666992 100.00732422 C-31.98947118 100.99220225 -33.59836247 102.04994998 -35.19921875 103.1171875 C-36.18921875 103.1171875 -37.17921875 103.1171875 -38.19921875 103.1171875 C-37.59219243 96.439898 -35.42290481 90.41590754 -33.19921875 84.1171875 C-36.48511506 85.50143012 -37.06361373 85.82239399 -38.63671875 89.2421875 C-38.87519531 89.86738281 -39.11367187 90.49257812 -39.359375 91.13671875 C-40.24971213 93.23625794 -41.33064261 95.01977149 -42.57421875 96.9296875 C-44.54185733 99.96682333 -46.18987895 103.04493358 -47.76171875 106.3046875 C-49.55254142 109.95954257 -51.34254003 113.16200261 -54.19921875 116.1171875 C-54.85921875 116.1171875 -55.51921875 116.1171875 -56.19921875 116.1171875 C-59.1985299 110.88913921 -61.93929849 105.70751656 -64.19921875 100.1171875 C-67.16921875 100.1171875 -70.13921875 100.1171875 -73.19921875 100.1171875 C-73.19921875 99.4571875 -73.19921875 98.7971875 -73.19921875 98.1171875 C-71.21921875 97.1271875 -69.23921875 96.1371875 -67.19921875 95.1171875 C-67.34359375 94.48296875 -67.48796875 93.84875 -67.63671875 93.1953125 C-71.91833332 71.66830593 -69.49436381 49.64217744 -57.19921875 31.1171875 C-45.37314169 15.12110905 -29.19401863 4.70075553 -9.75390625 0.6015625 C-6.50618727 0.14616279 -3.27503718 0.11996473 0 0 Z " fill="#223F6D" transform="translate(278.19921875,159.8828125)"/>
<path d="M0 0 C5.61 0 11.22 0 17 0 C17.33 14.85 17.66 29.7 18 45 C21.3 42.36 24.6 39.72 28 37 C28.66 37 29.32 37 30 37 C30 36.34 30 35.68 30 35 C30.70511719 34.74476563 31.41023437 34.48953125 32.13671875 34.2265625 C37.33601969 31.99930398 41.96905697 28.97553487 46 25 C46.96955787 21.85692779 46.64824726 20.30016789 46 17 C48 19 48 19 48 22 C49.32 20.68 50.64 19.36 52 18 C51.01 15.03 51.01 15.03 50 12 C54.12312826 10.10558972 58.15630453 9.39266287 62.625 8.875 C63.32560547 8.79008301 64.02621094 8.70516602 64.74804688 8.61767578 C70.50911176 7.96276973 76.20304591 7.77892972 82 8 C82 9.32 82 10.64 82 12 C74.08 12.99 66.16 13.98 58 15 C58.99 16.485 58.99 16.485 60 18 C59.9375 19.9375 59.9375 19.9375 59 22 C56.58229307 24.21047491 54.03372628 25.97766245 51.3046875 27.78515625 C47.59333667 30.27255096 43.95324702 32.84849588 40.3125 35.4375 C34.04581093 39.8817406 27.72983678 44.24541147 21.375 48.5625 C14.98527413 52.9080551 8.70505608 57.36797079 2.49829102 61.97021484 C-3.92820317 66.72011927 -10.50635377 71.23972562 -17.12060547 75.72314453 C-18.93049716 76.95277996 -20.73332138 78.19219411 -22.53515625 79.43359375 C-23.59605469 80.15675781 -24.65695312 80.87992187 -25.75 81.625 C-26.67296875 82.25664062 -27.5959375 82.88828125 -28.546875 83.5390625 C-30.77201862 84.86422765 -32.4692441 85.5624394 -35 86 C-34.39877638 81.32104727 -33.10284139 77.4130753 -31.27734375 73.0703125 C-31.01240616 72.43511688 -30.74746857 71.79992126 -30.47450256 71.14547729 C-29.63479557 69.13609166 -28.78631766 67.13055157 -27.9375 65.125 C-27.36334656 63.75545374 -26.78977294 62.38566425 -26.21679688 61.015625 C-24.81789155 57.67424443 -23.41110057 54.33625171 -22 51 C-25.31644377 52.10548126 -27.97023489 53.62431026 -31 55.375 C-31.59723877 55.71934082 -32.19447754 56.06368164 -32.80981445 56.41845703 C-34.1364603 57.18397821 -35.46234604 57.95081768 -36.78759766 58.71875 C-39.20401088 60.11814711 -41.62337555 61.5123589 -44.04296875 62.90625 C-45.75793169 63.89562677 -47.47277654 64.88520825 -49.1875 65.875 C-50.4259668 66.58922119 -50.4259668 66.58922119 -51.68945312 67.31787109 C-52.46611328 67.76727051 -53.24277344 68.21666992 -54.04296875 68.6796875 C-54.73414795 69.07913574 -55.42532715 69.47858398 -56.13745117 69.89013672 C-57.79025243 70.87501475 -59.39914372 71.93276248 -61 73 C-61.99 73 -62.98 73 -64 73 C-63.39297368 66.3227105 -61.22368606 60.29872004 -59 54 C-62.28589631 55.38424262 -62.86439498 55.70520649 -64.4375 59.125 C-64.67597656 59.75019531 -64.91445312 60.37539062 -65.16015625 61.01953125 C-66.05049338 63.11907044 -67.13142386 64.90258399 -68.375 66.8125 C-70.34263858 69.84963583 -71.9906602 72.92774608 -73.5625 76.1875 C-75.35332267 79.84235507 -77.14332128 83.04481511 -80 86 C-80.66 86 -81.32 86 -82 86 C-84.99931115 80.77195171 -87.74007974 75.59032906 -90 70 C-92.97 70 -95.94 70 -99 70 C-99 69.34 -99 68.68 -99 68 C-98.05125 67.566875 -97.1025 67.13375 -96.125 66.6875 C-92.79958063 65.20697799 -92.79958063 65.20697799 -91 62 C-91 62.99 -91 63.98 -91 65 C-89.9378125 64.39671875 -88.875625 63.7934375 -87.78125 63.171875 C-86.35422541 62.36447951 -84.92713874 61.55719372 -83.5 60.75 C-82.80390625 60.35425781 -82.1078125 59.95851562 -81.390625 59.55078125 C-80.34648437 58.96103516 -80.34648437 58.96103516 -79.28125 58.359375 C-78.65283203 58.00327148 -78.02441406 57.64716797 -77.37695312 57.28027344 C-73.96003245 55.43985314 -70.47131027 53.73565514 -67 52 C-66.67 39.46 -66.34 26.92 -66 14 C-60.39 14 -54.78 14 -49 14 C-49 28.85 -49 43.7 -49 59 C-47.68 58.34 -46.36 57.68 -45 57 C-44.67 46.77 -44.34 36.54 -44 26 C-38.39 26 -32.78 26 -27 26 C-27 32.6 -27 39.2 -27 46 C-25.68 45.34 -24.36 44.68 -23 44 C-22.67 33.77 -22.34 23.54 -22 13 C-16.39 13 -10.78 13 -5 13 C-5 28.51 -5 44.02 -5 60 C-3.68 59.34 -2.36 58.68 -1 58 C-0.67 38.86 -0.34 19.72 0 0 Z " fill="#57A7E5" transform="translate(304,190)"/>
<path d="M0 0 C0.83249596 17.3899156 -4.97833391 33.69436486 -16.23046875 47.0546875 C-16.81441406 47.69664062 -17.39835937 48.33859375 -18 49 C-18.92232422 50.02480469 -18.92232422 50.02480469 -19.86328125 51.0703125 C-33.51568767 65.46142628 -52.33024407 73.04861709 -72.02685547 74.10913086 C-81.64405951 74.29518828 -91.18252722 71.70333857 -100 68 C-98.87841629 64.63524888 -98.27152508 64.20522125 -95.46484375 62.2578125 C-94.37333008 61.49404297 -94.37333008 61.49404297 -93.25976562 60.71484375 C-92.49341797 60.19019531 -91.72707031 59.66554688 -90.9375 59.125 C-89.82858398 58.34962891 -89.82858398 58.34962891 -88.69726562 57.55859375 C-85.14701186 55.09236323 -81.56656341 52.70605576 -77.88671875 50.4375 C-73.4615533 47.70564604 -69.29461419 44.6615444 -65.11328125 41.57421875 C-61.54162112 38.97737414 -57.97335402 36.95628278 -54 35 C-52.69670597 34.04269021 -51.42443907 33.0416329 -50.1875 32 C-43.77769392 26.87433164 -36.78889678 22.61258564 -29.87939453 18.20263672 C-24.84375646 14.98029934 -19.89935148 11.63730738 -15.01171875 8.1953125 C-14.29121338 7.69128906 -13.57070801 7.18726563 -12.82836914 6.66796875 C-11.37927704 5.65320287 -9.93430806 4.632519 -8.49389648 3.60546875 C-7.82817627 3.14011719 -7.16245605 2.67476562 -6.4765625 2.1953125 C-5.87924316 1.77266113 -5.28192383 1.35000977 -4.66650391 0.91455078 C-3 0 -3 0 0 0 Z " fill="#3673AC" transform="translate(355,233)"/>
<path d="M0 0 C5.61 0 11.22 0 17 0 C17 14.85 17 29.7 17 45 C17.99 45 18.98 45 20 45 C20 45.66 20 46.32 20 47 C20.99 47 21.98 47 23 47 C23 46.34 23 45.68 23 45 C23.99 45 24.98 45 26 45 C26 44.01 26 43.02 26 42 C28.97 41.505 28.97 41.505 32 41 C30.71932877 44.8420137 29.46975951 45.14661613 25.9765625 47.06640625 C24.955625 47.63423828 23.9346875 48.20207031 22.8828125 48.78710938 C21.80773437 49.37298828 20.73265625 49.95886719 19.625 50.5625 C17.51258734 51.72968453 15.40058949 52.89762022 13.2890625 54.06640625 C12.34756348 54.58146729 11.40606445 55.09652832 10.43603516 55.62719727 C7.8642472 57.03651299 7.8642472 57.03651299 5 59 C4.01 59 3.02 59 2 59 C2.60702632 52.3227105 4.77631394 46.29872004 7 40 C3.71410369 41.38424262 3.13560502 41.70520649 1.5625 45.125 C1.32402344 45.75019531 1.08554688 46.37539062 0.83984375 47.01953125 C-0.05049338 49.11907044 -1.13142386 50.90258399 -2.375 52.8125 C-4.34263858 55.84963583 -5.9906602 58.92774608 -7.5625 62.1875 C-9.35332267 65.84235507 -11.14332128 69.04481511 -14 72 C-14.66 72 -15.32 72 -16 72 C-18.99931115 66.77195171 -21.74007974 61.59032906 -24 56 C-26.97 56 -29.94 56 -33 56 C-33 55.34 -33 54.68 -33 54 C-32.05125 53.566875 -31.1025 53.13375 -30.125 52.6875 C-26.79958063 51.20697799 -26.79958063 51.20697799 -25 48 C-25 48.99 -25 49.98 -25 51 C-23.9378125 50.39671875 -22.875625 49.7934375 -21.78125 49.171875 C-20.35422541 48.36447951 -18.92713874 47.55719372 -17.5 46.75 C-16.80390625 46.35425781 -16.1078125 45.95851562 -15.390625 45.55078125 C-14.34648437 44.96103516 -14.34648437 44.96103516 -13.28125 44.359375 C-12.65283203 44.00327148 -12.02441406 43.64716797 -11.37695312 43.28027344 C-7.96003245 41.43985314 -4.47131027 39.73565514 -1 38 C-0.67 25.46 -0.34 12.92 0 0 Z " fill="#56A5E3" transform="translate(238,204)"/>
<path d="M0 0 C0 8.91 0 17.82 0 27 C-2.97 27.66 -5.94 28.32 -9 29 C-9 29.66 -9 30.32 -9 31 C-9.66 31 -10.32 31 -11 31 C-11 31.66 -11 32.32 -11 33 C-7.7 33 -4.4 33 -1 33 C-1 32.34 -1 31.68 -1 31 C1.31 31.33 3.62 31.66 6 32 C2.38942179 34.40705214 -0.9975294 34.91886566 -5.1875 35.625 C-6.28288086 35.82609375 -6.28288086 35.82609375 -7.40039062 36.03125 C-20.0896989 38.23417686 -32.17002519 35.96858942 -44 31 C-42.87841629 27.63524888 -42.27152508 27.20522125 -39.46484375 25.2578125 C-38.73716797 24.74863281 -38.00949219 24.23945313 -37.25976562 23.71484375 C-36.49341797 23.19019531 -35.72707031 22.66554688 -34.9375 22.125 C-33.82858398 21.34962891 -33.82858398 21.34962891 -32.69726562 20.55859375 C-29.15086122 18.09503724 -25.57450128 15.7110681 -21.8984375 13.4453125 C-17.37999754 10.65604153 -13.12501817 7.54252133 -8.84960938 4.3984375 C-2.79176136 0 -2.79176136 0 0 0 Z " fill="#4384BC" transform="translate(299,270)"/>
<path d="M0 0 C-1.56380405 5.14990967 -3.73007279 9.85565197 -6.0625 14.6875 C-6.86468874 16.36453292 -7.66676864 18.0416179 -8.46875 19.71875 C-9.08943359 21.01232422 -9.08943359 21.01232422 -9.72265625 22.33203125 C-11.85070597 26.77685681 -13.95552056 31.23265881 -16.0625 35.6875 C-16.82411161 37.29562367 -17.58582031 38.90370135 -18.34765625 40.51171875 C-18.89292969 41.66285156 -19.43820313 42.81398438 -20 44 C-28.49166133 43.04955717 -37.72632018 34.47909234 -43 28 C-43.03515625 26.1015625 -43.03515625 26.1015625 -42 24 C-39.89294462 22.39448316 -37.88528512 21.03835623 -35.625 19.6875 C-34.99086182 19.29506104 -34.35672363 18.90262207 -33.70336914 18.49829102 C-32.41228909 17.69942205 -31.1184237 16.90503659 -29.82177734 16.11523438 C-27.33602023 14.59353262 -24.88778607 13.01552766 -22.4375 11.4375 C-21.56867188 10.88835937 -20.69984375 10.33921875 -19.8046875 9.7734375 C-18.3097128 8.82814709 -16.815732 7.88121122 -15.32910156 6.92285156 C-13.57870389 5.79447194 -11.82123088 4.67783487 -10.0625 3.5625 C-9.00160156 2.88316406 -7.94070313 2.20382812 -6.84765625 1.50390625 C-4 0 -4 0 0 0 Z " fill="#55A6E4" transform="translate(270,254)"/>
<path d="M0 0 C0.66 0.33 1.32 0.66 2 1 C1.67 1.66 1.34 2.32 1 3 C0.9528255 5.10884742 0.96270271 7.21907977 1 9.328125 C0.99801709 11.28922621 0.99596557 13.25032821 0.99169922 15.21142578 C0.99720446 16.56344842 1.01691521 17.91549253 1.05126953 19.26708984 C1.31211914 30.48362314 1.31211914 30.48362314 -1.89453125 34.18945312 C-4.22135564 35.77732748 -6.39493233 36.93591389 -9 38 C-9.86109375 38.37543945 -10.7221875 38.75087891 -11.609375 39.13769531 C-14 40 -14 40 -17 40 C-17 31.42 -17 22.84 -17 14 C-17.66 13.67 -18.32 13.34 -19 13 C-16.77252265 11.39344326 -14.54310558 9.78970321 -12.3125 8.1875 C-11.68666016 7.73568359 -11.06082031 7.28386719 -10.41601562 6.81835938 C-3.20377604 1.64518229 -3.20377604 1.64518229 0 0 Z " fill="#54A7E6" transform="translate(321,254)"/>
<path d="M0 0 C0.33 0 0.66 0 1 0 C1 10.89 1 21.78 1 33 C2.65 33 4.3 33 6 33 C0.32314668 39.15613737 -7.57361013 44.61481417 -16.13671875 45.22265625 C-18.50348988 44.97618793 -20.70732789 44.6286359 -23 44 C-23 44.66 -23 45.32 -23 46 C-26.3 46 -29.6 46 -33 46 C-33 44.68 -33 43.36 -33 42 C-25.375 40 -25.375 40 -22 40 C-22.01047363 39.19256348 -22.02094727 38.38512695 -22.03173828 37.55322266 C-22.07319831 33.91051318 -22.09929438 30.26785325 -22.125 26.625 C-22.14175781 25.35398437 -22.15851563 24.08296875 -22.17578125 22.7734375 C-22.18222656 21.56171875 -22.18867188 20.35 -22.1953125 19.1015625 C-22.20578613 17.98088379 -22.21625977 16.86020508 -22.22705078 15.70556641 C-22 13 -22 13 -20 11 C-19.01 11 -18.02 11 -17 11 C-17 19.58 -17 28.16 -17 37 C-14.03 35.68 -11.06 34.36 -8 33 C-6.67871094 32.56171875 -5.35742188 32.1234375 -3.99609375 31.671875 C-2.20081342 30.75239117 -2.20081342 30.75239117 -1 29 C0.02723136 24.10271586 -0.01936414 19.23130494 -0.0625 14.25 C-0.04938728 12.87106004 -0.03314552 11.49214605 -0.01367188 10.11328125 C0.02169988 6.74117433 0.02502789 3.37211194 0 0 Z " fill="#337BB8" transform="translate(321,257)"/>
<path d="M0 0 C0 8.91 0 17.82 0 27 C-6.4403245 28.43118322 -10.68892692 29.22949357 -17 29 C-17.07347656 27.39318359 -17.07347656 27.39318359 -17.1484375 25.75390625 C-17.22345294 24.35674361 -17.2990013 22.9596095 -17.375 21.5625 C-17.4059375 20.85544922 -17.436875 20.14839844 -17.46875 19.41992188 C-17.57280629 17.60760812 -17.77919892 15.80182012 -18 14 C-18.66 13.67 -19.32 13.34 -20 13 C-4.5483871 0 -4.5483871 0 0 0 Z " fill="#55A6E5" transform="translate(299,270)"/>
<path d="M0 0 C0 1.32 0 2.64 0 4 C-7.92 4.99 -15.84 5.98 -24 7 C-23.34 7.99 -22.68 8.98 -22 10 C-22.0625 11.9375 -22.0625 11.9375 -23 14 C-25.40578663 16.19957635 -27.940099 17.96035963 -30.65625 19.7578125 C-34.60121245 22.37929976 -38.45162497 25.1318936 -42.3125 27.875 C-48.14828708 32.009756 -54.0012124 36.10335165 -60 40 C-61 37 -61 37 -60.375 35.0625 C-58.61329488 32.41994232 -56.59144281 30.81400997 -54 29 C-53.34 29 -52.68 29 -52 29 C-52 28.34 -52 27.68 -52 27 C-50.94232422 26.61714844 -50.94232422 26.61714844 -49.86328125 26.2265625 C-44.66398031 23.99930398 -40.03094303 20.97553487 -36 17 C-35.03044213 13.85692779 -35.35175274 12.30016789 -36 9 C-34 11 -34 11 -34 14 C-32.68 12.68 -31.36 11.36 -30 10 C-30.66 8.02 -31.32 6.04 -32 4 C-27.87687174 2.10558972 -23.84369547 1.39266287 -19.375 0.875 C-18.67439453 0.79008301 -17.97378906 0.70516602 -17.25195312 0.61767578 C-11.49088824 -0.03723027 -5.79695409 -0.22107028 0 0 Z " fill="#8CB6D2" transform="translate(386,198)"/>
<path d="M0 0 C-0.48600735 5.10307714 -2.11095743 7.82693851 -5 12 C-5.85354075 13.67736963 -6.68557982 15.36579129 -7.5 17.0625 C-9.31273475 20.76047889 -11.10948754 24.0098147 -14 27 C-14.66 27 -15.32 27 -16 27 C-16.79275148 25.5839401 -17.58415312 24.16712447 -18.375 22.75 C-19.03628906 21.56664062 -19.03628906 21.56664062 -19.7109375 20.359375 C-20.13632813 19.58078125 -20.56171875 18.8021875 -21 18 C-21.38414062 17.34515625 -21.76828125 16.6903125 -22.1640625 16.015625 C-23.1784256 13.56977752 -23.14568768 11.62237827 -23 9 C-5.52427184 0 -5.52427184 0 0 0 Z " fill="#345C8B" transform="translate(238,249)"/>
<path d="M0 0 C0 1.175625 0 2.35125 0 3.5625 C0.58743312 8.49869175 3.15764919 10.53994212 6.89453125 13.5546875 C8.87158182 14.91184652 10.82665058 15.99391015 13 17 C12.34 17.99 11.68 18.98 11 20 C5.74776538 20.49965949 1.77714405 19.87498483 -2.3359375 16.484375 C-5.35067081 13.77883373 -8.19718243 10.92321352 -11 8 C-10.2265625 4.2109375 -10.2265625 4.2109375 -8.1875 2.3125 C-5.42576621 0.65545972 -3.20777571 0 0 0 Z " fill="#306EA7" transform="translate(238,274)"/>
<path d="M0 0 C-0.99 0.495 -0.99 0.495 -2 1 C-2.22945313 1.57234375 -2.45890625 2.1446875 -2.6953125 2.734375 C-4.65612425 6.13937745 -7.72365102 8.02678004 -10.875 10.25 C-11.53959229 10.72800049 -12.20418457 11.20600098 -12.88891602 11.69848633 C-18.82866611 15.94460977 -24.87798371 20.02125943 -31 24 C-32 21 -32 21 -31.375 19.0625 C-29.61329488 16.41994232 -27.59144281 14.81400997 -25 13 C-24.34 13 -23.68 13 -23 13 C-23 12.34 -23 11.68 -23 11 C-22.29746094 10.76539063 -21.59492188 10.53078125 -20.87109375 10.2890625 C-16.35877229 8.26312225 -12.84444996 5.01468551 -9.03515625 1.8984375 C-5.65854601 -0.21357354 -3.90282384 -0.40715003 0 0 Z " fill="#72A7D4" transform="translate(357,214)"/>
<path d="M0 0 C0.66 1.32 1.32 2.64 2 4 C-2.75 7 -2.75 7 -5 7 C-5 7.66 -5 8.32 -5 9 C-10.26501239 11.72615266 -15.35138882 14.16420137 -21 16 C-21.66 16.66 -22.32 17.32 -23 18 C-25.1640625 18.1953125 -25.1640625 18.1953125 -27.625 18.125 C-28.44226563 18.10695313 -29.25953125 18.08890625 -30.1015625 18.0703125 C-30.72804687 18.04710937 -31.35453125 18.02390625 -32 18 C-32 17.34 -32 16.68 -32 16 C-31.05125 15.566875 -30.1025 15.13375 -29.125 14.6875 C-25.79958063 13.20697799 -25.79958063 13.20697799 -24 10 C-24 10.99 -24 11.98 -24 13 C-22.9378125 12.39671875 -21.875625 11.7934375 -20.78125 11.171875 C-19.35422541 10.36447951 -17.92713874 9.55719372 -16.5 8.75 C-15.80390625 8.35425781 -15.1078125 7.95851562 -14.390625 7.55078125 C-9.66213439 4.8800597 -4.87486486 2.39351473 0 0 Z " fill="#5A9CD1" transform="translate(237,242)"/>
<path d="M0 0 C0.33 0 0.66 0 1 0 C1.04938149 4.37823917 1.0857104 8.75633146 1.10986328 13.13476562 C1.11993043 14.6247032 1.13358518 16.11462097 1.15087891 17.60449219 C1.17509653 19.74419028 1.18647564 21.88362753 1.1953125 24.0234375 C1.20578613 25.31169434 1.21625977 26.59995117 1.22705078 27.92724609 C1 31 1 31 -1 33 C-1.99 33 -2.98 33 -4 33 C-4 26.4 -4 19.8 -4 13 C-9.61 13 -15.22 13 -21 13 C-21 12.67 -21 12.34 -21 12 C-18.02077407 11.97316013 -15.04178705 11.95323963 -12.0625 11.9375 C-10.78729492 11.92493164 -10.78729492 11.92493164 -9.48632812 11.91210938 C-8.67744141 11.90888672 -7.86855469 11.90566406 -7.03515625 11.90234375 C-6.2862915 11.89710693 -5.53742676 11.89187012 -4.76586914 11.88647461 C-3 12 -3 12 -2 13 C-1.34 8.71 -0.68 4.42 0 0 Z " fill="#295F97" transform="translate(281,203)"/>
<path d="M0 0 C0.66 0.33 1.32 0.66 2 1 C2 3.31 2 5.62 2 8 C3.36125 7.2575 3.36125 7.2575 4.75 6.5 C8 5 8 5 12 5 C12 4.34 12 3.68 12 3 C13.32 3.66 14.64 4.32 16 5 C14.96359375 5.68707031 13.9271875 6.37414062 12.859375 7.08203125 C11.48954222 7.99212563 10.11975284 8.90228531 8.75 9.8125 C8.06808594 10.26431641 7.38617188 10.71613281 6.68359375 11.18164062 C3.95370368 12.99715004 1.27191422 14.78404092 -1.296875 16.82421875 C-3 18 -3 18 -6 18 C-5.41347648 13.51006131 -4.2356462 9.77456816 -2.4375 5.625 C-1.98246094 4.56539063 -1.52742188 3.50578125 -1.05859375 2.4140625 C-0.70925781 1.61742187 -0.35992187 0.82078125 0 0 Z " fill="#77AAD4" transform="translate(275,258)"/>
<path d="M0 0 C0.33 0 0.66 0 1 0 C1 10.89 1 21.78 1 33 C2.65 33 4.3 33 6 33 C2.27533026 37.12348715 -1.30111839 39.47454339 -6.3125 41.8125 C-7.28026367 42.27946289 -7.28026367 42.27946289 -8.26757812 42.75585938 C-9.84059344 43.51323712 -11.41969126 44.25796058 -13 45 C-13 43.66666667 -13 42.33333333 -13 41 C-10.525 40.505 -10.525 40.505 -8 40 C-8.103125 39.278125 -8.20625 38.55625 -8.3125 37.8125 C-7.8720263 33.84823674 -5.95708831 32.53464713 -3 30 C-2.34 29.67 -1.68 29.34 -1 29 C-0.67 19.43 -0.34 9.86 0 0 Z " fill="#4D89BE" transform="translate(321,257)"/>
<path d="M0 0 C0.66 0.33 1.32 0.66 2 1 C1.67 5.29 1.34 9.58 1 14 C-4.63281599 14.2396943 -9.54538831 13.38529821 -15 12 C-10.58990583 7.14889642 -5.41995647 3.651893 0 0 Z " fill="#5AA3DC" transform="translate(276,284)"/>
<path d="M0 0 C4.66327309 4.66327309 5.83886474 8.79354034 6.359375 15.30859375 C6 18 6 18 4.453125 19.91015625 C2.37010562 21.44109718 0.24896205 22.72831418 -2 24 C-3.67344761 25.32481269 -5.34348188 26.65407903 -7 28 C-7.66 27.67 -8.32 27.34 -9 27 C-7.0257408 23.24890752 -5.70798132 21.85399066 -2 20 C0.11057699 17.06026776 1 15.65351863 1 12 C1 11.34 1 10.68 1 10 C0.34 9.67 -0.32 9.34 -1 9 C-0.67 6.03 -0.34 3.06 0 0 Z " fill="#296299" transform="translate(345,197)"/>
<path d="M0 0 C-1.44323469 4.73789165 -3.37226733 8.98858151 -5.625 13.375 C-5.94984375 14.01566406 -6.2746875 14.65632813 -6.609375 15.31640625 C-7.40257407 16.87947501 -8.20077031 18.44000622 -9 20 C-9.33 20 -9.66 20 -10 20 C-10.04898437 19.07316406 -10.09796875 18.14632813 -10.1484375 17.19140625 C-10.22320312 15.99386719 -10.29796875 14.79632813 -10.375 13.5625 C-10.44460938 12.36753906 -10.51421875 11.17257812 -10.5859375 9.94140625 C-10.72257812 8.97074219 -10.85921875 8.00007813 -11 7 C-11.66 6.67 -12.32 6.34 -13 6 C-11.59138651 4.98868775 -10.17274547 3.99133233 -8.75 3 C-7.56664062 2.1646875 -7.56664062 2.1646875 -6.359375 1.3125 C-4 0 -4 0 0 0 Z " fill="#65A2D4" transform="translate(270,254)"/>
<path d="M0 0 C0.33 0 0.66 0 1 0 C1 5.28 1 10.56 1 16 C2.44375 15.319375 3.8875 14.63875 5.375 13.9375 C7.8359375 12.77734375 7.8359375 12.77734375 10 12 C10.66 12.33 11.32 12.66 12 13 C11.67 13.66 11.34 14.32 11 15 C10.64386903 16.66194453 10.30791692 18.328451 10 20 C8.02 20.66 6.04 21.32 4 22 C4 22.66 4 23.32 4 24 C1.69 23.67 -0.62 23.34 -3 23 C-2.67854004 22.4337793 -2.35708008 21.86755859 -2.02587891 21.28417969 C-0.92710244 18.83768931 -0.69398432 17.11827998 -0.5859375 14.453125 C-0.54726563 13.60878906 -0.50859375 12.76445312 -0.46875 11.89453125 C-0.4378125 11.02183594 -0.406875 10.14914062 -0.375 9.25 C-0.33632813 8.36183594 -0.29765625 7.47367187 -0.2578125 6.55859375 C-0.16379127 4.3726002 -0.07813857 2.18660938 0 0 Z " fill="#3A82C0" transform="translate(303,278)"/>
<path d="M0 0 C0.05416741 2.72943537 0.09375225 5.45778564 0.125 8.1875 C0.15013672 9.34088867 0.15013672 9.34088867 0.17578125 10.51757812 C0.21266851 14.8149434 -0.0041496 18.07901831 -2 22 C-2.99 22 -3.98 22 -5 22 C-5 15.07 -5 8.14 -5 1 C-1 0 -1 0 0 0 Z " fill="#316B9F" transform="translate(260,260)"/>
<path d="M0 0 C0.33 0 0.66 0 1 0 C1.33 11.55 1.66 23.1 2 35 C2.33 35 2.66 35 3 35 C3.33 30.05 3.66 25.1 4 20 C4.33 20 4.66 20 5 20 C5.05786668 23.79160297 5.09355054 27.58309311 5.125 31.375 C5.14175781 32.45523438 5.15851563 33.53546875 5.17578125 34.6484375 C5.18222656 35.6796875 5.18867188 36.7109375 5.1953125 37.7734375 C5.20578613 38.72653809 5.21625977 39.67963867 5.22705078 40.66162109 C5 43 5 43 3 45 C2.01 45 1.02 45 0 45 C0 30.15 0 15.3 0 0 Z " fill="#255D95" transform="translate(255,204)"/>
<path d="M0 0 C0.33 0 0.66 0 1 0 C1.01981934 1.10512939 1.03963867 2.21025879 1.06005859 3.34887695 C1.13610449 7.44725413 1.22482329 11.54527579 1.31738281 15.64331055 C1.35567679 17.41732771 1.39052895 19.19142264 1.421875 20.96557617 C1.46751672 23.51509399 1.52551185 26.0640763 1.5859375 28.61328125 C1.59748871 29.40712723 1.60903992 30.20097321 1.62094116 31.01887512 C1.72355385 34.84323908 1.83064066 36.74596099 4 40 C5.3921875 38.9790625 5.3921875 38.9790625 6.8125 37.9375 C7.864375 37.298125 8.91625 36.65875 10 36 C10.99 36.33 11.98 36.66 13 37 C11.02297434 38.50289733 9.0435417 40.00241342 7.0625 41.5 C6.49853516 41.92925781 5.93457031 42.35851562 5.35351562 42.80078125 C1.11328125 46 1.11328125 46 0 46 C0 30.82 0 15.64 0 0 Z " fill="#2C649D" transform="translate(321,190)"/>
<path d="M0 0 C0.66 0 1.32 0 2 0 C2 5.94 2 11.88 2 18 C0.35 18.66 -1.3 19.32 -3 20 C-4.52011174 12.23421176 -3.50088047 7.0618619 0 0 Z " fill="#5C88B3" transform="translate(280,246)"/>
<path d="M0 0 C3.44788426 2.18366003 5.0230233 3.99439553 6 8 C5.19660401 11.03505154 4.12370468 11.91118639 1.5625 13.75 C-1 15 -1 15 -4 15 C-3.43179252 9.54520815 -2.05362055 5.08940744 0 0 Z " fill="#65A9DD" transform="translate(244,248)"/>
<path d="M0 0 C0.33 0 0.66 0 1 0 C1 12.54 1 25.08 1 38 C-8 43 -8 43 -12 44 C-11.67 43.01 -11.34 42.02 -11 41 C-7.71694623 39.41927041 -4.45463072 38.15154357 -1 37 C-0.67 24.79 -0.34 12.58 0 0 Z " fill="#285C93" transform="translate(237,204)"/>
<path d="M0 0 C0.33 0 0.66 0 1 0 C1 1.65 1 3.3 1 5 C1.66 5 2.32 5 3 5 C1.35433477 10.68502535 -1.29032784 15.76681636 -4 21 C-8.31085759 20.32084333 -10.10640878 19.3222714 -13 16 C-10.36 16 -7.72 16 -5 16 C-3.19695845 10.69905784 -1.49276376 5.39691512 0 0 Z " fill="#7BADD2" transform="translate(254,277)"/>
<path d="M0 0 C0.33 0 0.66 0 1 0 C0.89049976 3.9589232 0.75978332 7.91686326 0.625 11.875 C0.5940625 13.00292969 0.563125 14.13085938 0.53125 15.29296875 C0.49257813 16.36933594 0.45390625 17.44570312 0.4140625 18.5546875 C0.36693115 20.04718018 0.36693115 20.04718018 0.31884766 21.56982422 C0 24 0 24 -2 26 C-3.20029908 23.59940183 -3.11459743 22.10639351 -3.09765625 19.4296875 C-3.09443359 18.53378906 -3.09121094 17.63789063 -3.08789062 16.71484375 C-3.07951172 15.77769531 -3.07113281 14.84054688 -3.0625 13.875 C-3.05798828 12.93011719 -3.05347656 11.98523438 -3.04882812 11.01171875 C-3.03702357 8.67441613 -3.02055759 6.33723939 -3 4 C-2.01 3.67 -1.02 3.34 0 3 C0 2.01 0 1.02 0 0 Z " fill="#204C80" transform="translate(259,215)"/>
<path d="M0 0 C0.66 0.33 1.32 0.66 2 1 C-2.38439513 5.88546886 -2.38439513 5.88546886 -5.6875 6.5 C-6.450625 6.665 -7.21375 6.83 -8 7 C-9.37466625 9.47636012 -9.37466625 9.47636012 -10 12 C-13.3 12 -16.6 12 -20 12 C-20 11.34 -20 10.68 -20 10 C-19.05125 9.566875 -18.1025 9.13375 -17.125 8.6875 C-13.79958063 7.20697799 -13.79958063 7.20697799 -12 4 C-12 4.99 -12 5.98 -12 7 C-11.15695313 6.48308594 -10.31390625 5.96617187 -9.4453125 5.43359375 C-8.34960938 4.77488281 -7.25390625 4.11617187 -6.125 3.4375 C-5.03445312 2.77621094 -3.94390625 2.11492187 -2.8203125 1.43359375 C-1.88960937 0.96050781 -0.95890625 0.48742187 0 0 Z " fill="#6296C4" transform="translate(225,248)"/>
<path d="M0 0 C-0.20625 1.093125 -0.4125 2.18625 -0.625 3.3125 C-1.40346525 7.0838401 -1.40346525 7.0838401 1 10 C1.99 10.33 2.98 10.66 4 11 C5.25 12.875 5.25 12.875 6 15 C5.67 15.99 5.34 16.98 5 18 C1.04 14.37 -2.92 10.74 -7 7 C-5.97478996 2.89915984 -4.64580209 0 0 0 Z " fill="#6988A9" transform="translate(234,275)"/>
<path d="M0 0 C5.61 0 11.22 0 17 0 C17 1.32 17 2.64 17 4 C16.34 4 15.68 4 15 4 C14.34 3.34 13.68 2.68 13 2 C9.04 2 5.08 2 1 2 C1 11.57 1 21.14 1 31 C0.67 31 0.34 31 0 31 C0 20.77 0 10.54 0 0 Z " fill="#5A9BD6" transform="translate(282,203)"/>
<path d="M0 0 C6.28534266 4.84495164 10.52946118 10.4741745 15 17 C14.67 17.66 14.34 18.32 14 19 C13.236875 18.505 12.47375 18.01 11.6875 17.5 C9.07636249 15.75631692 9.07636249 15.75631692 6 16 C6 13.36 6 10.72 6 8 C5.01 7.67 4.02 7.34 3 7 C0 2.66666667 0 2.66666667 0 0 Z " fill="#415D80" transform="translate(330,178)"/>
<path d="M0 0 C1.9375 0.75 1.9375 0.75 3.9375 2.75 C4.9275 2.75 5.9175 2.75 6.9375 2.75 C6.6075 4.4 6.2775 6.05 5.9375 7.75 C6.9275 8.08 7.9175 8.41 8.9375 8.75 C3.48270815 8.18179252 -0.97309256 6.80362055 -6.0625 4.75 C-4.93603904 1.37061712 -3.84635253 -0.46622455 0 0 Z " fill="#5488B8" transform="translate(261.0625,296.25)"/>
<path d="M0 0 C8.57142857 1 8.57142857 1 12 2 C12 3.32 12 4.64 12 6 C12.66 6.33 13.32 6.66 14 7 C14 7.66 14 8.32 14 9 C11.03 8.67 8.06 8.34 5 8 C5.33 6.35 5.66 4.7 6 3 C4.02 3.33 2.04 3.66 0 4 C0 2.66666667 0 1.33333333 0 0 Z " fill="#347DBB" transform="translate(262,296)"/>
<path d="M0 0 C0.66 0 1.32 0 2 0 C2.33 3.3 2.66 6.6 3 10 C-3.75 10.125 -3.75 10.125 -6 9 C-5.75 6.625 -5.75 6.625 -5 4 C-3 2.8125 -3 2.8125 -1 2 C-0.67 1.34 -0.34 0.68 0 0 Z " fill="#57A6E6" transform="translate(274,288)"/>
<path d="M0 0 C0 3.96 0 7.92 0 12 C-0.33 12 -0.66 12 -1 12 C-1.33 9.69 -1.66 7.38 -2 5 C-3.6396875 5.7425 -3.6396875 5.7425 -5.3125 6.5 C-9 8 -9 8 -12 8 C-12.33 9.32 -12.66 10.64 -13 12 C-13.99 11.01 -14.98 10.02 -16 9 C-13.90160347 7.49130977 -11.79700219 5.99301643 -9.6875 4.5 C-9.09259766 4.07074219 -8.49769531 3.64148438 -7.88476562 3.19921875 C-3.33984375 0 -3.33984375 0 0 0 Z " fill="#698AA8" transform="translate(355,233)"/>
<path d="M0 0 C2 2 2 2 2 5 C2.62648438 4.69964844 3.25296875 4.39929688 3.8984375 4.08984375 C4.71570313 3.70957031 5.53296875 3.32929688 6.375 2.9375 C7.59316406 2.36322266 7.59316406 2.36322266 8.8359375 1.77734375 C9.90714844 1.39255859 9.90714844 1.39255859 11 1 C11.66 1.33 12.32 1.66 13 2 C12.875 3.75 12.875 3.75 12 6 C8.9375 8.25 8.9375 8.25 6 10 C5.67 9.34 5.34 8.68 5 8 C2.97536745 7.34786708 2.97536745 7.34786708 1 7 C0.67 4.69 0.34 2.38 0 0 Z " fill="#7FADD5" transform="translate(350,207)"/>
<path d="M0 0 C-3.38872633 3.58806317 -6.76141332 6.45684799 -11 9 C-11.66 9 -12.32 9 -13 9 C-12.690625 8.236875 -12.38125 7.47375 -12.0625 6.6875 C-11.32106407 4.81210323 -10.63771783 2.91315348 -10 1 C-6.58469988 -1.52985194 -3.99422541 -0.9077785 0 0 Z " fill="#6EA8D4" transform="translate(309,249)"/>
<path d="M0 0 C-0.66 1.32 -1.32 2.64 -2 4 C-4.01822917 3.96744792 -6.03645833 3.93489583 -8.0546875 3.90234375 C-10.08185404 3.87350758 -10.08185404 3.87350758 -12 5 C-12.99 4.34 -13.98 3.68 -15 3 C-10.76792916 -0.87939827 -5.03267034 -3.35511356 0 0 Z " fill="#23355A" transform="translate(278,162)"/>
<path d="M0 0 C-1.39525565 4.18576695 -4.32329949 5.18630376 -8 7.1875 C-8.65484375 7.55552734 -9.3096875 7.92355469 -9.984375 8.30273438 C-14.82844388 11 -14.82844388 11 -16 11 C-16 9.35 -16 7.7 -16 6 C-14.68 5.34 -13.36 4.68 -12 4 C-12 4.66 -12 5.32 -12 6 C-11.01 6 -10.02 6 -9 6 C-9 5.34 -9 4.68 -9 4 C-8.01 4 -7.02 4 -6 4 C-6 3.01 -6 2.02 -6 1 C-3.92446352 0.4465236 -2.15634036 0 0 0 Z " fill="#76ABD7" transform="translate(270,245)"/>
<path d="M0 0 C0.66 0.33 1.32 0.66 2 1 C2 2.65 2 4.3 2 6 C1.38125 6.28875 0.7625 6.5775 0.125 6.875 C-2.13325765 7.93720042 -2.13325765 7.93720042 -4 10 C-4.99 10 -5.98 10 -7 10 C-8.70532323 11.94009522 -8.70532323 11.94009522 -10 14 C-10.66 13.67 -11.32 13.34 -12 13 C-10.18777319 11.02058257 -8.37523172 9.04145495 -6.5625 7.0625 C-6.04623047 6.49853516 -5.52996094 5.93457031 -4.99804688 5.35351562 C-1.11328125 1.11328125 -1.11328125 1.11328125 0 0 Z " fill="#57647E" transform="translate(235,176)"/>
<path d="M0 0 C0.66 0 1.32 0 2 0 C2.2475 0.969375 2.495 1.93875 2.75 2.9375 C3.1625 3.948125 3.575 4.95875 4 6 C6.03243548 6.96877057 6.03243548 6.96877057 8 7 C8 5.35 8 3.7 8 2 C9.32 2.66 10.64 3.32 12 4 C11.21654285 5.17219543 10.42297164 6.33763668 9.625 7.5 C9.18414062 8.1496875 8.74328125 8.799375 8.2890625 9.46875 C7.65097656 10.22671875 7.65097656 10.22671875 7 11 C6.34 11 5.68 11 5 11 C4.16151196 9.54462432 3.32936066 8.08559627 2.5 6.625 C1.80390625 5.40683594 1.80390625 5.40683594 1.09375 4.1640625 C0 2 0 2 0 0 Z " fill="#6A86A0" transform="translate(217,265)"/>
<path d="M0 0 C0.33 0 0.66 0 1 0 C1.06058594 1.27617187 1.12117187 2.55234375 1.18359375 3.8671875 C1.26799568 5.53647016 1.35264386 7.20574037 1.4375 8.875 C1.47681641 9.71675781 1.51613281 10.55851563 1.55664062 11.42578125 C1.59853516 12.23144531 1.64042969 13.03710938 1.68359375 13.8671875 C1.73858032 14.98262939 1.73858032 14.98262939 1.79467773 16.12060547 C1.89955865 18.08864312 1.89955865 18.08864312 3 20 C3.66 20.33 4.32 20.66 5 21 C5 23 5 25 5 27 C4.34 27 3.68 27 3 27 C2.67 27.66 2.34 28.32 2 29 C0.27490076 22.32373009 -0.25620222 16.31552429 -0.125 9.4375 C-0.11597656 8.52419922 -0.10695312 7.61089844 -0.09765625 6.66992188 C-0.07437253 4.44632681 -0.0416771 2.22331323 0 0 Z " fill="#7E8FA9" transform="translate(209,223)"/>
<path d="M0 0 C0.99 0.33 1.98 0.66 3 1 C3.33 1.99 3.66 2.98 4 4 C-0.80716281 7.04453644 -5.89959405 9.49436368 -11 12 C-10.2890625 8.203125 -10.2890625 8.203125 -7.6875 6.375 C-6.800625 5.92125 -5.91375 5.4675 -5 5 C-4.29875 4.5875 -3.5975 4.175 -2.875 3.75 C-1 3 -1 3 2 4 C2 3.34 2 2.68 2 2 C1.34 2 0.68 2 0 2 C0 1.34 0 0.68 0 0 Z " fill="#7BB0DA" transform="translate(282,234)"/>
<path d="M0 0 C0.66 0.33 1.32 0.66 2 1 C1.34 2.98 0.68 4.96 0 7 C-0.86625 7.144375 -1.7325 7.28875 -2.625 7.4375 C-4.295625 7.7159375 -4.295625 7.7159375 -6 8 C-8 8.33333333 -10 8.66666667 -12 9 C-8.33494586 5.00175912 -4.88887148 2.39831431 0 0 Z " fill="#72A8CE" transform="translate(321,254)"/>
<path d="M0 0 C0.33 0.66 0.66 1.32 1 2 C-1.31 2.33 -3.62 2.66 -6 3 C-5.01 4.485 -5.01 4.485 -4 6 C-4.33 6.99 -4.66 7.98 -5 9 C-5 8.34 -5 7.68 -5 7 C-5.5775 7.144375 -6.155 7.28875 -6.75 7.4375 C-9.875 8.21875 -9.875 8.21875 -13 9 C-12.34 6.69 -11.68 4.38 -11 2 C-10.01 2.99 -9.02 3.98 -8 5 C-8.33 3.68 -8.66 2.36 -9 1 C-5.92677456 0.08941469 -3.19902639 -0.08886184 0 0 Z " fill="#94C5E6" transform="translate(368,202)"/>
<path d="M0 0 C0.66 0.33 1.32 0.66 2 1 C2 1.99 2 2.98 2 4 C1.360625 4.28875 0.72125 4.5775 0.0625 4.875 C-2.15206079 5.82823451 -2.15206079 5.82823451 -3 8 C-5.64 8 -8.28 8 -11 8 C-7.6378363 4.34117479 -4.63949148 1.85579659 0 0 Z " fill="#4877A2" transform="translate(338,243)"/>
<path d="M0 0 C1.875 0.3125 1.875 0.3125 4 1 C6 4 6 4 5.625 6.1875 C5.41875 6.785625 5.2125 7.38375 5 8 C3.68 8 2.36 8 1 8 C-0.42944945 5.64561267 -1.08661261 4.51967567 -0.625 1.75 C-0.41875 1.1725 -0.2125 0.595 0 0 Z " fill="#89B6D2" transform="translate(368,222)"/>
<path d="M0 0 C0 0.33 0 0.66 0 1 C-1.98 1 -3.96 1 -6 1 C-6 1.66 -6 2.32 -6 3 C-6.99 3.33 -7.98 3.66 -9 4 C-9 4.99 -9 5.98 -9 7 C-9.99 6.67 -10.98 6.34 -12 6 C-12.66 6 -13.32 6 -14 6 C-14.33 4.68 -14.66 3.36 -15 2 C-10.13948404 -0.59227518 -5.34728867 -0.18689553 0 0 Z " fill="#7DAED5" transform="translate(369,200)"/>
<path d="M0 0 C-0.7734375 0.37125 -0.7734375 0.37125 -1.5625 0.75 C-3.89987391 1.90674978 -3.89987391 1.90674978 -5.6484375 3.0234375 C-9.27724728 5.25777016 -11.61777696 6.47375384 -16 6 C-17.32 6 -18.64 6 -20 6 C-17.42501192 3.42501192 -15.16172058 2.93733245 -11.6875 1.875 C-10.55699219 1.52179688 -9.42648437 1.16859375 -8.26171875 0.8046875 C-5.33613198 0.08292597 -2.98951921 -0.16826562 0 0 Z " fill="#596580" transform="translate(271,161)"/>
<path d="M0 0 C2.31 0.33 4.62 0.66 7 1 C0.97022631 5.01984912 -5.92445235 5.25729264 -13 5 C-10.41073669 2.41073669 -8.97294721 2.62601957 -5.375 2.375 C-4.37210937 2.30023438 -3.36921875 2.22546875 -2.3359375 2.1484375 C-1.56507813 2.09945313 -0.79421875 2.05046875 0 2 C0 1.34 0 0.68 0 0 Z " fill="#72A0C4" transform="translate(298,301)"/>
<path d="M0 0 C1 3 1 3 0 6 C-1.65 6 -3.3 6 -5 6 C-5.33 8.31 -5.66 10.62 -6 13 C-6.99 13.33 -7.98 13.66 -9 14 C-6.95642702 0 -6.95642702 0 0 0 Z " fill="#1F3258" transform="translate(230,185)"/>
<path d="M0 0 C0.33 0 0.66 0 1 0 C1 4.29 1 8.58 1 13 C-8.75 18 -8.75 18 -11 18 C-10.505 16.515 -10.505 16.515 -10 15 C-6.71694623 13.41927041 -3.45463072 12.15154357 0 11 C0 7.37 0 3.74 0 0 Z " fill="#22528A" transform="translate(236,230)"/>
<path d="M0 0 C0.66 0.33 1.32 0.66 2 1 C1.50769231 7.52307692 1.50769231 7.52307692 -1.0625 9.9375 C-1.701875 10.288125 -2.34125 10.63875 -3 11 C-3.75 7.75 -3.75 7.75 -4 4 C-2.0625 1.5625 -2.0625 1.5625 0 0 Z " fill="#2F6498" transform="translate(236,274)"/>
<path d="M0 0 C0.33 0 0.66 0 1 0 C1.95261487 4.76307437 2.08333357 9.1666528 2 14 C0.68 14.33 -0.64 14.66 -2 15 C-2.0896657 11.77203485 -1.84664542 9.10436655 -1 6 C-0.65421232 4.00211562 -0.31856451 2.00240549 0 0 Z " fill="#2D6AA3" transform="translate(280,250)"/>
<path d="M0 0 C0.33 0 0.66 0 1 0 C1 6.6 1 13.2 1 20 C2.65 19.34 4.3 18.68 6 18 C6 18.66 6 19.32 6 20 C6.66 20 7.32 20 8 20 C8 20.66 8 21.32 8 22 C5.36 21.67 2.72 21.34 0 21 C0 14.07 0 7.14 0 0 Z " fill="#5599D0" transform="translate(276,216)"/>
<path d="M0 0 C1.45047396 2.90094791 0.45356803 4.55972596 -0.4375 7.625 C-0.72496094 8.62789062 -1.01242188 9.63078125 -1.30859375 10.6640625 C-1.53675781 11.43492187 -1.76492187 12.20578125 -2 13 C-2.99 13 -3.98 13 -5 13 C-4.54996653 7.37458159 -3.31558515 4.38512875 0 0 Z " fill="#55607B" transform="translate(222,190)"/>
<path d="M0 0 C6.57315478 -0.36517527 11.79485526 0.86380263 18 3 C15.58959839 4.53690745 14.49917715 5.09752136 11.640625 4.5390625 C10.85171875 4.23742187 10.0628125 3.93578125 9.25 3.625 C8.45078125 3.32851562 7.6515625 3.03203125 6.828125 2.7265625 C6.22484375 2.48679688 5.6215625 2.24703125 5 2 C4.67 2.66 4.34 3.32 4 4 C3.34 3.67 2.68 3.34 2 3 C2.33 2.34 2.66 1.68 3 1 C2.01 0.67 1.02 0.34 0 0 Z " fill="#525D79" transform="translate(290,161)"/>
<path d="M0 0 C0.99 0.33 1.98 0.66 3 1 C-0.3 4.3 -3.6 7.6 -7 11 C-7.66 10.01 -8.32 9.02 -9 8 C-8.01 8 -7.02 8 -6 8 C-6 6.68 -6 5.36 -6 4 C-4.35 3.67 -2.7 3.34 -1 3 C-0.67 2.01 -0.34 1.02 0 0 Z " fill="#719CC3" transform="translate(336,279)"/>
<path d="M0 0 C0.66 0.33 1.32 0.66 2 1 C-2.17460278 5.53761171 -7.88633632 8.23579204 -14 9 C-14 8.34 -14 7.68 -14 7 C-12 6 -10 5 -8 4 C-7.30390625 3.62875 -6.6078125 3.2575 -5.890625 2.875 C-4.83101562 2.318125 -4.83101562 2.318125 -3.75 1.75 C-3.08484375 1.39421875 -2.4196875 1.0384375 -1.734375 0.671875 C-1.16203125 0.45015625 -0.5896875 0.2284375 0 0 Z " fill="#4B7EAD" transform="translate(231,248)"/>
<path d="M0 0 C-0.66 3.3 -1.32 6.6 -2 10 C-2.66 10 -3.32 10 -4 10 C-3.67 7.69 -3.34 5.38 -3 3 C-3.99 3 -4.98 3 -6 3 C-6 2.34 -6 1.68 -6 1 C-3 0 -3 0 0 0 Z " fill="#5B9DCE" transform="translate(249,240)"/>
<path d="M0 0 C1.1446875 0.0928125 1.1446875 0.0928125 2.3125 0.1875 C1.9825 0.8475 1.6525 1.5075 1.3125 2.1875 C0.3534375 2.31125 0.3534375 2.31125 -0.625 2.4375 C-1.305625 2.685 -1.98625 2.9325 -2.6875 3.1875 C-3.9920656 6.18365946 -3.9920656 6.18365946 -4.6875 9.1875 C-5.0175 8.1975 -5.3475 7.2075 -5.6875 6.1875 C-7.6675 6.8475 -9.6475 7.5075 -11.6875 8.1875 C-11.6875 7.5275 -11.6875 6.8675 -11.6875 6.1875 C-10.759375 5.754375 -9.83125 5.32125 -8.875 4.875 C-5.75714073 3.4492267 -5.75714073 3.4492267 -4.125 1.5 C-2.6875 0.1875 -2.6875 0.1875 0 0 Z " fill="#ABCDE1" transform="translate(243.6875,242.8125)"/>
<path d="M0 0 C2.33333823 2.12121657 3.9148886 4.01594365 5 7 C4.625 9.25 4.625 9.25 4 11 C2.0625 10.1875 2.0625 10.1875 0 9 C-1.15941038 5.52176885 -0.70820884 3.54104422 0 0 Z " fill="#597293" transform="translate(345,197)"/>
<path d="M0 0 C0.33 0.66 0.66 1.32 1 2 C1.99 2.33 2.98 2.66 4 3 C2.5903653 3.70180531 1.17192359 4.38593958 -0.25 5.0625 C-1.03890625 5.44535156 -1.8278125 5.82820312 -2.640625 6.22265625 C-5 7 -5 7 -9 6 C-6.03 4.02 -3.06 2.04 0 0 Z " fill="#4B5777" transform="translate(246,169)"/>
<path d="M0 0 C0.33 0 0.66 0 1 0 C1 4.95 1 9.9 1 15 C0.01 15 -0.98 15 -2 15 C-2.04241723 12.66705225 -2.04092937 10.33297433 -2 8 C-1.67 7.67 -1.34 7.34 -1 7 C-0.63239269 4.67182036 -0.29758419 2.3381615 0 0 Z " fill="#1F4C7E" transform="translate(280,209)"/>
<path d="M0 0 C2.475 0.99 2.475 0.99 5 2 C5.33 4.31 5.66 6.62 6 9 C4.02 9 2.04 9 0 9 C0 6 0 6 0.5625 3.9375 C1.23013503 1.9325719 1.23013503 1.9325719 0 0 Z " fill="#2B5280" transform="translate(345,205)"/>
<path d="M0 0 C0.66 0.33 1.32 0.66 2 1 C2 3 2 3 -0.3125 5.5 C-3 8 -3 8 -6 10 C-6 9.01 -6 8.02 -6 7 C-6.66 6.67 -7.32 6.34 -8 6 C-5.36 4.02 -2.72 2.04 0 0 Z " fill="#83BADF" transform="translate(289,275)"/>
<path d="M0 0 C0.33 0 0.66 0 1 0 C1 1.65 1 3.3 1 5 C1.66 5.33 2.32 5.66 3 6 C-0.625 9 -0.625 9 -4 9 C-3.625 6.5625 -3.625 6.5625 -3 4 C-2.34 3.67 -1.68 3.34 -1 3 C-0.67 2.01 -0.34 1.02 0 0 Z " fill="#61A5DA" transform="translate(275,263)"/>
<path d="M0 0 C4.72373854 1.62378512 8.94181834 4.10993018 13 7 C13 7.33 13 7.66 13 8 C11.35 8 9.7 8 8 8 C8 7.01 8 6.02 8 5 C6.35 5 4.7 5 3 5 C2.67 4.34 2.34 3.68 2 3 C1.34 2.67 0.68 2.34 0 2 C0 1.34 0 0.68 0 0 Z " fill="#627189" transform="translate(313,167)"/>
<path d="M0 0 C0 1.65 0 3.3 0 5 C-0.33 4.34 -0.66 3.68 -1 3 C-1.83144531 3.45052734 -1.83144531 3.45052734 -2.6796875 3.91015625 C-3.40414062 4.29042969 -4.12859375 4.67070312 -4.875 5.0625 C-5.95394531 5.63677734 -5.95394531 5.63677734 -7.0546875 6.22265625 C-7.69664062 6.47917969 -8.33859375 6.73570312 -9 7 C-9.66 6.67 -10.32 6.34 -11 6 C-9.54550599 4.9944239 -8.08627557 3.99569565 -6.625 3 C-5.40683594 2.1646875 -5.40683594 2.1646875 -4.1640625 1.3125 C-2 0 -2 0 0 0 Z " fill="#79B2D6" transform="translate(255,262)"/>
<path d="M0 0 C0 0.66 0 1.32 0 2 C0.53625 1.814375 1.0725 1.62875 1.625 1.4375 C4.61990614 0.88580676 7.03745829 1.39402556 10 2 C10 2.33 10 2.66 10 3 C4.06 3 -1.88 3 -8 3 C-4 0 -4 0 0 0 Z " fill="#1A487E" transform="translate(289,200)"/>
<path d="M0 0 C3.465 1.98 3.465 1.98 7 4 C6.67 5.32 6.34 6.64 6 8 C6 7.34 6 6.68 6 6 C5.05125 6.04125 4.1025 6.0825 3.125 6.125 C0 6 0 6 -2 4 C-1.34 2.68 -0.68 1.36 0 0 Z " fill="#27497A" transform="translate(338,193)"/>
<path d="M0 0 C-0.1875 1.875 -0.1875 1.875 -1 4 C-3.63678659 5.49655455 -5.16532951 6.17595756 -8.16796875 5.54296875 C-8.77253906 5.36378906 -9.37710938 5.18460937 -10 5 C-8.71186658 4.16121545 -7.41936744 3.32913217 -6.125 2.5 C-5.40570313 2.0359375 -4.68640625 1.571875 -3.9453125 1.09375 C-2 0 -2 0 0 0 Z " fill="#83B2D7" transform="translate(244,269)"/>
<path d="M0 0 C-1.75 5.75 -1.75 5.75 -4 8 C-4 6.35 -4 4.7 -4 3 C-4.99 3.66 -5.98 4.32 -7 5 C-7.66 4.34 -8.32 3.68 -9 3 C-5.55930376 0.70620251 -4.27709699 0 0 0 Z " fill="#8AAFCD" transform="translate(270,254)"/>
<path d="M0 0 C4.13937592 3.30015998 7.58662205 6.17324411 10 11 C9.01 11 8.02 11 7 11 C6.67 10.01 6.34 9.02 6 8 C5.01 7.67 4.02 7.34 3 7 C0 2.66666667 0 2.66666667 0 0 Z " fill="#6C7C93" transform="translate(330,178)"/>
<path d="M0 0 C0.33 0.66 0.66 1.32 1 2 C2.65 1.67 4.3 1.34 6 1 C6.66 2.32 7.32 3.64 8 5 C5.03 4.67 2.06 4.34 -1 4 C-0.67 2.68 -0.34 1.36 0 0 Z " fill="#3A78A9" transform="translate(268,300)"/>
<path d="M0 0 C1.32 0.66 2.64 1.32 4 2 C-2.27692308 6.06153846 -2.27692308 6.06153846 -5.9375 5.75 C-6.618125 5.5025 -7.29875 5.255 -8 5 C-4.93882432 2.37613513 -4.26826873 2 0 2 C0 1.34 0 0.68 0 0 Z " fill="#7BB5DC" transform="translate(287,261)"/>
<path d="M0 0 C3 1 3 1 4.25 2.875 C5 5 5 5 4 8 C2.35 6.68 0.7 5.36 -1 4 C-0.67 2.68 -0.34 1.36 0 0 Z " fill="#5D83A8" transform="translate(235,285)"/>
<path d="M0 0 C0.66 0.33 1.32 0.66 2 1 C1.2884375 1.7115625 1.2884375 1.7115625 0.5625 2.4375 C-1.68076096 6.11644797 -1.73739578 9.7621112 -2 14 C-2.33 14 -2.66 14 -3 14 C-3 11.03 -3 8.06 -3 5 C-3.66 4.67 -4.32 4.34 -5 4 C-3.35 2.68 -1.7 1.36 0 0 Z " fill="#7BB0D7" transform="translate(307,263)"/>
<path d="M0 0 C0.33 0 0.66 0 1 0 C1 2.31 1 4.62 1 7 C1.66 7 2.32 7 3 7 C3 7.66 3 8.32 3 9 C1.35 9.33 -0.3 9.66 -2 10 C-1.54177532 6.53058454 -1.10868317 3.32604951 0 0 Z " fill="#8DB7D7" transform="translate(242,253)"/>
<path d="M0 0 C0.33 0.99 0.66 1.98 1 3 C2.65 3 4.3 3 6 3 C6 3.66 6 4.32 6 5 C3.39417629 5.93065133 2.35801776 6.14917407 -0.25 5.0625 C-0.8275 4.711875 -1.405 4.36125 -2 4 C-2 3.01 -2 2.02 -2 1 C-1.34 0.67 -0.68 0.34 0 0 Z M-3 5 C-2.01 5.33 -1.02 5.66 0 6 C-0.99 6 -1.98 6 -3 6 C-3 5.67 -3 5.34 -3 5 Z " fill="#1F345C" transform="translate(315,169)"/>
<path d="M0 0 C0.66 0.33 1.32 0.66 2 1 C1.67 3.31 1.34 5.62 1 8 C0.67 6.68 0.34 5.36 0 4 C-0.598125 4.350625 -1.19625 4.70125 -1.8125 5.0625 C-4 6 -4 6 -7 5 C-4.69 3.35 -2.38 1.7 0 0 Z " fill="#83B7D8" transform="translate(276,284)"/>
<path d="M0 0 C2.97 0.495 2.97 0.495 6 1 C1.375 5.875 1.375 5.875 -2 7 C-1.42415568 4.61435923 -0.77772405 2.33317216 0 0 Z " fill="#91BCDC" transform="translate(303,248)"/>
<path d="M0 0 C-1 3 -1 3 -2.84765625 4.16796875 C-3.57855469 4.50441406 -4.30945313 4.84085938 -5.0625 5.1875 C-5.79597656 5.53167969 -6.52945312 5.87585938 -7.28515625 6.23046875 C-8.13400391 6.61138672 -8.13400391 6.61138672 -9 7 C-9 6.01 -9 5.02 -9 4 C-8.01 4 -7.02 4 -6 4 C-6 3.01 -6 2.02 -6 1 C-3.92446352 0.4465236 -2.15634036 0 0 0 Z " fill="#87B6DA" transform="translate(270,245)"/>
<path d="M0 0 C0.33 0.66 0.66 1.32 1 2 C1.66 2 2.32 2 3 2 C2.34 4.31 1.68 6.62 1 9 C0.34 9 -0.32 9 -1 9 C-1.09765625 2.84765625 -1.09765625 2.84765625 -1 1 C-0.67 0.67 -0.34 0.34 0 0 Z " fill="#5B85AF" transform="translate(257,273)"/>
<path d="M0 0 C0.33 0.99 0.66 1.98 1 3 C-1.475 4.485 -1.475 4.485 -4 6 C-4.99 5.34 -5.98 4.68 -7 4 C-4.69 2.68 -2.38 1.36 0 0 Z " fill="#86B4D7" transform="translate(298,270)"/>
<path d="M0 0 C1.11375 0.556875 1.11375 0.556875 2.25 1.125 C0.25 3.125 0.25 3.125 -3.375 3.25 C-4.48875 3.20875 -5.6025 3.1675 -6.75 3.125 C-6.75 2.465 -6.75 1.805 -6.75 1.125 C-4.02098495 -0.69434337 -3.21400584 -1.02263822 0 0 Z " fill="#8DADC7" transform="translate(211.75,256.875)"/>
<path d="M0 0 C1.4370809 -0.05422947 2.87475462 -0.09289723 4.3125 -0.125 C5.11300781 -0.14820313 5.91351563 -0.17140625 6.73828125 -0.1953125 C9 0 9 0 12 2 C7.48281619 3.36884358 4.41225737 2.47075246 0 1 C0 0.67 0 0.34 0 0 Z " fill="#1E2E50" transform="translate(281,161)"/>
<path d="M0 0 C1.32 0 2.64 0 4 0 C4.66 1.32 5.32 2.64 6 4 C3.69 3.67 1.38 3.34 -1 3 C-0.67 2.01 -0.34 1.02 0 0 Z " fill="#6388AA" transform="translate(256,298)"/>
<path d="M0 0 C2.64 0.33 5.28 0.66 8 1 C8 1.99 8 2.98 8 4 C4.31245243 3.50168276 2.39509338 2.89932357 0 0 Z " fill="#6C8FAD" transform="translate(241,293)"/>
<path d="M0 0 C0.66 0.33 1.32 0.66 2 1 C2 1.99 2 2.98 2 4 C-1 5 -1 5 -4 4 C-3.67 3.01 -3.34 2.02 -3 1 C-2.01 0.67 -1.02 0.34 0 0 Z " fill="#7CB0DB" transform="translate(342,222)"/>
<path d="M0 0 C2.97 0 5.94 0 9 0 C9 0.33 9 0.66 9 1 C6.69 1.66 4.38 2.32 2 3 C1.67 4.98 1.34 6.96 1 9 C0.67 9 0.34 9 0 9 C0 6.03 0 3.06 0 0 Z " fill="#60A0DA" transform="translate(260,216)"/>
<path d="M0 0 C0.66 0.33 1.32 0.66 2 1 C2 2.65 2 4.3 2 6 C0.35 6 -1.3 6 -3 6 C-2.42655063 3.13275314 -2.1385485 2.1385485 0 0 Z " fill="#505B7A" transform="translate(235,176)"/>
<path d="M0 0 C0.66 0.33 1.32 0.66 2 1 C0.35 2.65 -1.3 4.3 -3 6 C-4.32 5.34 -5.64 4.68 -7 4 C-1.7265625 0.77734375 -1.7265625 0.77734375 0 0 Z " fill="#5692C9" transform="translate(225,248)"/>
<path d="M0 0 C0.66 0.33 1.32 0.66 2 1 C0.29374499 3.78388975 -0.47626739 4.85384206 -3.6875 5.75 C-4.8321875 5.87375 -4.8321875 5.87375 -6 6 C-4 4 -2 2 0 0 Z " fill="#83B3D5" transform="translate(267,290)"/>
<path d="M0 0 C-0.33 1.32 -0.66 2.64 -1 4 C-2.98 4.33 -4.96 4.66 -7 5 C-2.25 0 -2.25 0 0 0 Z " fill="#93BAD8" transform="translate(316,258)"/>
<path d="M0 0 C2.97 0.495 2.97 0.495 6 1 C1.25 5 1.25 5 -1 5 C-0.67 3.35 -0.34 1.7 0 0 Z " fill="#7FB0D7" transform="translate(315,240)"/>
<path d="M0 0 C3.125 -0.1875 3.125 -0.1875 6 0 C5.01 0.495 5.01 0.495 4 1 C3.67 1.99 3.34 2.98 3 4 C1.35 3.67 -0.3 3.34 -2 3 C-1.34 2.01 -0.68 1.02 0 0 Z " fill="#62A2D6" transform="translate(351,214)"/>
<path d="M0 0 C0.66 0 1.32 0 2 0 C1.67 0.99 1.34 1.98 1 3 C-2.63 3 -6.26 3 -10 3 C-6.16775421 1.0838771 -5.00839226 0.89166507 -1 1 C-0.67 0.67 -0.34 0.34 0 0 Z " fill="#1D467C" transform="translate(272,212)"/>
<path d="M0 0 C3.125 -0.1875 3.125 -0.1875 6 0 C3.6875 2.0625 3.6875 2.0625 1 4 C0.01 3.67 -0.98 3.34 -2 3 C-1.34 2.01 -0.68 1.02 0 0 Z " fill="#5FA3D8" transform="translate(291,275)"/>
<path d="M0 0 C0.66 0.33 1.32 0.66 2 1 C0.68 3.31 -0.64 5.62 -2 8 C-2.33 8 -2.66 8 -3 8 C-3 6.02 -3 4.04 -3 2 C-2.01 2 -1.02 2 0 2 C0 1.34 0 0.68 0 0 Z " fill="#8AACCF" transform="translate(263,266)"/>
<path d="M0 0 C0.33 0 0.66 0 1 0 C0.67 2.64 0.34 5.28 0 8 C-0.99 8.33 -1.98 8.66 -3 9 C-2.01 6.03 -1.02 3.06 0 0 Z " fill="#94BCD7" transform="translate(275,258)"/>
<path d="M0 0 C0.66 0.33 1.32 0.66 2 1 C2 1.66 2 2.32 2 3 C-0.97 3.66 -3.94 4.32 -7 5 C-4.51068299 2.51068299 -3.16125753 1.22371259 0 0 Z " fill="#7492AF" transform="translate(338,243)"/>
<path d="M0 0 C2.0625 0.4375 2.0625 0.4375 4 1 C3.01 1.495 3.01 1.495 2 2 C1.67 2.99 1.34 3.98 1 5 C0.01 5.33 -0.98 5.66 -2 6 C-1.125 1.125 -1.125 1.125 0 0 Z " fill="#5C9DD5" transform="translate(324,233)"/>
<path d="M0 0 C0.66 0 1.32 0 2 0 C1.67 1.32 1.34 2.64 1 4 C-0.32 4 -1.64 4 -3 4 C-3 3.01 -3 2.02 -3 1 C-2.01 1.33 -1.02 1.66 0 2 C0 1.34 0 0.68 0 0 Z " fill="#B6CFDD" transform="translate(372,226)"/>
</svg>
